# xmcd
#
# Track frame offsets: 
#        150
#        12915
#        27060
#        45057
#        59425
#        71731
#        112530
#        115658
#        134835
#        152292
#        167130
#        179391
#        198574
#
# Disc length: 2990 seconds
#
# Revision: 0
# Processed by: cddbd v1.5.2PL0 Copyright (c) Steve Scherf et al.
# Submitted via: ExactAudioCopy v0.95b4
#
DISCID=a00bac0d
DTITLE=Strozzini - Murphy's Law
DYEAR=2007
DGENRE=Singersongwriter
TTITLE0=Mt. Bottles
TTITLE1=Home
TTITLE2=Espresso machine
TTITLE3=Alcohol
TTITLE4=Cry
TTITLE5=Wrong
TTITLE6=Intermezzo blues
TTITLE7=Daddy loves you
TTITLE8=Fence
TTITLE9=By my side
TTITLE10=Sleeping beauty
TTITLE11=Go away
TTITLE12=Someday
EXTD=
EXTT0=
EXTT1=
EXTT2=
EXTT3=
EXTT4=
EXTT5=
EXTT6=
EXTT7=
EXTT8=
EXTT9=
EXTT10=
EXTT11=
EXTT12=
PLAYORDER=
